<?xml version="1.0" encoding="utf-8"?>
<!-- Generator: Adobe Illustrator 22.0.0, SVG Export Plug-In . SVG Version: 6.00 Build 0)  -->
<svg version="1.1" id="Layer_1" xmlns="http://www.w3.org/2000/svg" xmlns:xlink="http://www.w3.org/1999/xlink" x="0px" y="0px"
	 viewBox="0 0 64 64" style="enable-background:new 0 0 64 64;" xml:space="preserve">
<path d="M57,35h-0.4l-3.2-5.1c0.5-0.5,0.9-1.2,1.3-1.9c0.8,0.7,1.6,1,2.3,1c0.9,0,1.7-0.3,2.3-0.9c1.7-1.7,1.7-5.4,1.7-8.3l0-0.8
	c0-3.9-3.1-7-7-7c-0.7,0-1.5,0.1-2.1,0.5C50.1,10.9,47.6,10,45,10s-5,0.9-6.9,2.5C37.5,12.1,36.7,12,36,12c-3.9,0-7,3.1-7,7l0,0.8
	c0,2.9,0,6.5,1.7,8.3c0.6,0.6,1.4,0.9,2.3,0.9c0.7,0,1.5-0.2,2.3-1c0.4,0.7,0.8,1.4,1.3,1.9L33.4,35H32h-8.2c1.2-1.2,2.2-2.8,2.2-5
	c0-1.7-0.9-2.8-1.5-3.5c-0.1-0.2-0.2-0.3-0.3-0.4c0.1-0.2,0.3-0.4,0.4-0.6c1-1.3,2.4-3.2,2.4-6.5c0-0.4-0.2-0.7-0.5-0.9
	c-0.3-0.2-0.7-0.2-1,0l-5.2,2.7c-1.7-1.2-3.6-1.8-5.7-1.8c-1.7,0-3.4,0.4-4.9,1.3l-5.2-3.2c-0.3-0.2-0.7-0.2-1,0
	C3.2,17.3,3,17.6,3,18c0,3.1,1.3,4.8,2.2,6c0.3,0.3,0.5,0.7,0.7,1C5,26.4,4,28.2,4,30c0,2.3,0.7,3.9,1.6,5C3.9,35.1,2,35.6,2,38v1
	c0,2.5,1.8,4.6,4.3,4.9C7.9,49.1,12.2,62,15,62h34c0.6,0,1.2-0.4,1.9-1.3c0.7,0.9,2.2,1.3,5.1,1.3c3.3,0,6-2.7,6-6
	c0-1.5-0.2-2.6-1.1-3.1c-0.9-0.5-1.8,0.2-2.6,0.9C57.6,54.3,56.8,55,56,55c0,0-0.1,0-0.1,0c0.1-0.3,0.1-0.7,0.1-1
	c0-1-0.3-1.8-0.9-2.5c1.2-3.2,2.2-6.3,2.7-7.5c2.4-0.4,4.3-2.4,4.3-4.9v-1C62,35,59.1,35,57,35z M59,19l0,0.8c0,2.3,0,5.7-1.1,6.8
	C57.7,26.9,57.4,27,57,27c-0.2,0-0.8,0-1.5-1.1c0.3-1.4,0.5-3,0.5-4.9c0-0.4,0-0.7-0.1-1c0-0.1,0-0.2,0-0.4c0-0.2-0.1-0.4-0.1-0.7
	c0-0.1-0.1-0.3-0.1-0.4c0-0.2-0.1-0.4-0.2-0.6c0-0.1-0.1-0.3-0.1-0.4c-0.1-0.2-0.1-0.4-0.2-0.5c-0.1-0.1-0.1-0.3-0.2-0.4
	c-0.1-0.2-0.2-0.3-0.2-0.5c-0.1-0.1-0.1-0.3-0.2-0.4c-0.1-0.2-0.2-0.3-0.3-0.5c-0.1-0.1-0.2-0.3-0.3-0.4c-0.1-0.1-0.2-0.2-0.3-0.4
	c-0.1-0.1-0.2-0.3-0.3-0.4c0.1,0,0.3,0,0.5,0C56.8,14,59,16.2,59,19z M51.6,14.9c0.1,0.2,0.3,0.3,0.4,0.5c0.1,0.1,0.1,0.1,0.1,0.2
	c0.1,0.2,0.2,0.3,0.3,0.5c0.1,0.1,0.1,0.2,0.2,0.3c0.1,0.2,0.2,0.3,0.3,0.5c0.1,0.1,0.1,0.2,0.2,0.3c0.1,0.2,0.1,0.3,0.2,0.5
	c0,0.1,0.1,0.2,0.1,0.4c0.1,0.1,0.1,0.3,0.2,0.4c0,0.1,0.1,0.3,0.1,0.4c0,0.1,0.1,0.3,0.1,0.4c0,0.2,0.1,0.3,0.1,0.5
	c0,0.1,0,0.2,0,0.3c0,0.3,0,0.6,0,0.9c0,1.9-0.2,3.4-0.5,4.7c0,0,0,0,0,0c-0.4,1.6-1.1,2.6-1.9,3.2c0,0,0,0-0.1,0
	c-0.8,0.6-1.7,0.9-2.9,1l-1.8-3H48v-2h-3h0h-3v2h1.2l-1.8,3c-1.2-0.1-2.2-0.4-2.9-1c0,0,0,0-0.1,0c-0.8-0.6-1.5-1.6-1.9-3.2
	c0,0,0,0,0,0C36.2,24.4,36,22.9,36,21c0-0.3,0-0.6,0-0.9c0-0.1,0-0.2,0-0.3c0-0.2,0-0.3,0.1-0.5c0-0.1,0.1-0.3,0.1-0.4
	c0-0.1,0.1-0.3,0.1-0.4c0-0.1,0.1-0.3,0.2-0.4c0-0.1,0.1-0.2,0.1-0.4c0.1-0.2,0.1-0.3,0.2-0.5c0-0.1,0.1-0.2,0.1-0.3
	c0.1-0.2,0.2-0.3,0.3-0.5c0-0.1,0.1-0.2,0.2-0.2c0.1-0.2,0.2-0.3,0.4-0.5c0-0.1,0.1-0.1,0.1-0.2c0.1-0.2,0.3-0.3,0.4-0.5
	c1.6-1.8,4-2.9,6.6-2.9C47.6,12,50,13.1,51.6,14.9z M44.7,28.5C44.7,28.5,44.7,28.5,44.7,28.5l0.3-0.6l1.5,2.5l-0.7,0.2
	c-0.5,0.2-1.1,0.2-1.6,0l-0.7-0.2L44.7,28.5z M34.5,25.9C33.8,27,33.2,27,33,27c-0.4,0-0.7-0.1-0.9-0.4C31,25.5,31,22.1,31,19.8
	l0-0.8c0-2.8,2.2-5,5-5c0.2,0,0.4,0,0.5,0c-0.1,0.1-0.2,0.3-0.3,0.5c-0.1,0.1-0.2,0.2-0.2,0.3c-0.1,0.1-0.2,0.3-0.3,0.4
	c-0.1,0.2-0.2,0.3-0.3,0.5c-0.1,0.1-0.1,0.3-0.2,0.4c-0.1,0.2-0.2,0.3-0.2,0.5c-0.1,0.1-0.1,0.3-0.2,0.4c-0.1,0.2-0.1,0.4-0.2,0.5
	c0,0.1-0.1,0.3-0.1,0.4c-0.1,0.2-0.1,0.4-0.2,0.6c0,0.1-0.1,0.3-0.1,0.4c0,0.2-0.1,0.4-0.1,0.7c0,0.1,0,0.2,0,0.4
	c0,0.3-0.1,0.7-0.1,1C34,22.9,34.2,24.5,34.5,25.9z M38.2,31.1C38.2,31.2,38.2,31.2,38.2,31.1c0.3,0.1,0.5,0.3,0.8,0.4
	c0,0,0.1,0,0.1,0c0.3,0.1,0.5,0.2,0.8,0.2c0,0,0.1,0,0.1,0c0.3,0.1,0.5,0.1,0.8,0.1c0.1,0,0.1,0,0.2,0c0.3,0,0.6,0,0.8,0l1.8,0.6
	c0.5,0.2,0.9,0.2,1.4,0.2s1-0.1,1.4-0.2l1.8-0.6c0.3,0,0.6,0,0.8,0c0.1,0,0.1,0,0.2,0c0.3,0,0.6-0.1,0.8-0.1c0,0,0.1,0,0.1,0
	c0.3-0.1,0.5-0.1,0.8-0.2c0,0,0.1,0,0.1,0c0.3-0.1,0.5-0.2,0.7-0.3c0,0,0,0,0,0l2.4,3.8H49h-4h-8h-1.2L38.2,31.1z M55.5,37
	c-0.5,0.9-1.3,2-2.5,2s-2.1-1.1-2.5-2H55.5z M43.5,37c-0.5,0.9-1.3,2-2.5,2s-2.1-1.1-2.5-2H43.5z M15,37h6h9.6c-0.8,1-2.6,2-4.6,2
	c-1.5,0-2.6-0.3-3.4-0.8c-0.3-0.2-0.7-0.2-1-0.1C21.2,38.3,21,38.6,21,39v3c0,0.6-0.4,1-1,1s-1-0.4-1-1c0-0.6-0.4-1-1-1s-1,0.4-1,1
	v3c0,0.6-0.4,1-1,1s-1-0.4-1-1V37z M5.2,19.9l4,2.4c0.3,0.2,0.7,0.2,1.1,0c1.3-0.9,2.8-1.3,4.4-1.3c1.8,0,3.6,0.6,5,1.8
	c0.3,0.2,0.7,0.3,1.1,0.1l4.1-2.1c-0.4,1.6-1.2,2.6-1.8,3.5c-0.3,0.5-0.7,0.9-0.9,1.3c-0.1,0.3-0.1,0.6,0,0.8
	c0.2,0.5,0.5,0.9,0.9,1.3C23.5,28.4,24,29,24,30c0,2.3-1.6,3.7-3.3,5H16v-3.4l1.4-0.7l-0.9-1.8L15,29.9l-1.6-0.8l-0.9,1.8l1.4,0.7
	V35H8.5C7,33.8,6,32.5,6,30c0-1.4,1.1-3.2,1.8-4.4l0.1-0.1C8,25.3,8,24.9,7.9,24.7c-0.3-0.7-0.7-1.3-1.1-1.9
	C6.2,22,5.6,21.1,5.2,19.9z M56,57c1.4,0,2.6-0.9,3.5-1.6c0.1-0.1,0.3-0.2,0.4-0.3c0,0.2,0,0.5,0,0.9c0,2.2-1.8,4-4,4
	c-3.8,0-3.8-0.5-3.8-1.8c0-0.1,0-0.2,0-0.3c0-0.1,0-0.2,0-0.4c0-0.2,0-0.4-0.1-0.6c0-0.1,0-0.1,0-0.1c0-0.3-0.2-0.5-0.4-0.7
	c-0.1,0-0.2-0.1-0.2-0.1c-0.3-0.1-0.6-0.3-0.9-0.6c-0.1-0.1-0.2-0.1-0.3-0.2l-0.6-0.4l0.1-0.1c0.2-0.2,0.3-0.4,0.3-0.7
	c0-1.1,0.9-2,2-2c0.6,0,1,0.3,1.3,0.5c0,0,0,0,0,0c0.4,0.4,0.7,0.9,0.7,1.5c0,0.4-0.1,0.8-0.4,1.2c-0.2,0.3-0.2,0.6-0.1,0.9
	s0.3,0.5,0.7,0.6C54.8,56.9,55.4,57,56,57z M60,39c0,1.7-1.3,3-3,3c-0.4,0-0.8,0.3-1,0.7c0,0-1.2,3.6-2.6,7.6c-0.1,0-0.1,0-0.2-0.1
	c-0.2,0-0.3-0.1-0.5-0.1C52.5,50,52.3,50,52,50c-2.1,0-3.8,1.6-4,3.6l-0.7,0.7c-0.2,0.2-0.3,0.5-0.3,0.8s0.2,0.6,0.5,0.7l1.6,0.9
	c0.1,0.1,0.3,0.3,0.5,0.4c0,0,0,0,0,0c0.2,0.1,0.3,0.2,0.5,0.3c0,0.1,0,0.3,0,0.4c-0.8,1.5-1.2,1.9-1.3,2H15.1
	c-1.3-1-4.7-9.7-7.2-17.3C7.8,42.3,7.4,42,7,42c-1.7,0-3-1.3-3-3v-1c0-0.8,0.4-1,3-1h1.2H13v8c0,1.7,1.3,3,3,3s3-1.3,3-3v-0.2
	c0.3,0.1,0.6,0.2,1,0.2c1.7,0,3-1.3,3-3v-1.4c0.9,0.3,1.9,0.4,3,0.4c3.2,0,6.1-1.8,6.8-4H34h2.3c0.5,1.3,1.9,4,4.7,4s4.2-2.7,4.7-4
	h2.6c0.5,1.3,1.9,4,4.7,4c2.8,0,4.2-2.6,4.7-4c2,0,2.3,0.3,2.3,1V39z"/>
<rect x="39" y="20" width="2" height="2"/>
<rect x="49" y="20" width="2" height="2"/>
<rect x="9" y="28" width="2" height="2"/>
<rect x="19" y="28" width="2" height="2"/>
<path d="M5,8c1.7,0,3-1.3,3-3S6.7,2,5,2S2,3.3,2,5S3.3,8,5,8z M5,4c0.6,0,1,0.4,1,1S5.6,6,5,6S4,5.6,4,5S4.4,4,5,4z"/>
<path d="M15,8c1.7,0,3-1.3,3-3s-1.3-3-3-3s-3,1.3-3,3S13.3,8,15,8z M15,4c0.6,0,1,0.4,1,1s-0.4,1-1,1s-1-0.4-1-1S14.4,4,15,4z"/>
<path d="M21,17c2.2,0,4-1.8,4-4s-1.8-4-4-4s-4,1.8-4,4S18.8,17,21,17z M21,11c1.1,0,2,0.9,2,2s-0.9,2-2,2s-2-0.9-2-2S19.9,11,21,11z
	"/>
</svg>
