<?xml version="1.0" encoding="utf-8"?>
<!-- Generator: Adobe Illustrator 22.0.0, SVG Export Plug-In . SVG Version: 6.00 Build 0)  -->
<svg version="1.1" id="Layer_1" xmlns="http://www.w3.org/2000/svg" xmlns:xlink="http://www.w3.org/1999/xlink" x="0px" y="0px"
	 viewBox="0 0 60 60.5" style="enable-background:new 0 0 60 60.5;" xml:space="preserve">
<title>5 -Dog Food- (Outline)</title>
<desc>Created with Sketch.</desc>
<g>
	<g transform="translate(-599.000000, -340.000000)">
		<g transform="translate(599.000000, 340.000000)">
			<path d="M28.5,47c-0.4,0-0.8,0.2-0.9,0.6l-3.1,7.4c-0.1,0.3-0.1,0.6,0.1,0.9c0.2,0.3,0.5,0.4,0.8,0.4h29.9c0.3,0,0.6-0.2,0.8-0.4
				c0.2-0.3,0.2-0.6,0.1-0.9L53,47.7C52.8,47.3,52.4,47,52,47H28.5z M55.2,58.2H25.3c-0.9,0-1.8-0.5-2.3-1.3
				c-0.5-0.8-0.6-1.8-0.3-2.6l3.1-7.4c0.4-1.1,1.5-1.8,2.7-1.8H52c1.2,0,2.2,0.7,2.7,1.8l3.1,7.4c0.4,0.9,0.3,1.8-0.3,2.6
				C57,57.8,56.1,58.2,55.2,58.2L55.2,58.2z"/>
			<path d="M26.8,48L26.8,48l-7.1,0c-0.5,0-0.9-0.4-0.9-0.9c0-0.5,0.4-0.9,0.9-0.9h0l7.1,0c0.5,0,0.9,0.4,0.9,0.9
				C27.8,47.6,27.3,48,26.8,48"/>
			<path d="M25.2,51.7h-7.4c-0.5,0-0.9-0.4-0.9-0.9c0-0.5,0.4-0.9,0.9-0.9h7.4c0.5,0,0.9,0.4,0.9,0.9C26.2,51.3,25.8,51.7,25.2,51.7
				"/>
			<path d="M20.1,21.1c0,0-0.1,0-0.1,0c-0.4,0.1-0.7,1-0.3,2.1c0.4,1.1,1.1,1.6,1.5,1.5c0.4-0.1,0.7-1,0.3-2.1v0
				C21.1,21.6,20.5,21.1,20.1,21.1 M21,26.5c-1.3,0-2.6-1.1-3.1-2.8c-0.7-2,0-3.9,1.5-4.4c1.5-0.5,3.2,0.7,3.8,2.7
				c0.7,2,0,3.9-1.5,4.4C21.5,26.5,21.3,26.5,21,26.5"/>
			<path d="M15.6,26.7c0,0-0.1,0-0.1,0c-0.4,0.1-0.7,1-0.3,2.1c0.4,1.1,1.1,1.6,1.5,1.5c0.4-0.1,0.7-1,0.3-2.1
				C16.7,27.2,16,26.7,15.6,26.7 M16.6,32.1c-1.3,0-2.6-1.1-3.1-2.8c-0.7-2,0-3.9,1.5-4.4c1.5-0.5,3.2,0.7,3.8,2.7l0,0
				c0.7,2,0,3.9-1.5,4.4C17.1,32.1,16.8,32.1,16.6,32.1"/>
			<path d="M28.7,21.1c-0.4,0-1,0.5-1.4,1.5v0c-0.4,1.1-0.1,1.9,0.3,2.1c0.4,0.1,1.1-0.4,1.5-1.5c0.4-1.1,0.1-1.9-0.3-2.1
				C28.8,21.1,28.8,21.1,28.7,21.1 M27.8,26.5c-0.2,0-0.5,0-0.7-0.1c-1.5-0.5-2.1-2.4-1.5-4.4c0.7-2,2.3-3.2,3.8-2.7
				c1.5,0.5,2.1,2.4,1.5,4.4C30.3,25.4,29.1,26.5,27.8,26.5"/>
			<path d="M31.8,28.2c-0.4,1.1-0.1,1.9,0.3,2.1c0.4,0.1,1.1-0.4,1.5-1.5c0.4-1.1,0.1-1.9-0.3-2.1C32.9,26.6,32.2,27.1,31.8,28.2
				 M32.2,32.1c-0.2,0-0.5,0-0.7-0.1c-1.5-0.5-2.1-2.4-1.5-4.4v0c0.7-2,2.3-3.2,3.8-2.7c1.5,0.5,2.1,2.4,1.5,4.4
				C34.8,31,33.5,32.1,32.2,32.1"/>
			<path d="M24.4,28.4c-0.1,0-0.1,0-0.2,0.1l-3.5,5.3c0,0-0.1,0.1,0,0.2s0.1,0.1,0.1,0.1H28c0,0,0.1,0,0.1-0.1c0-0.1,0-0.1,0-0.1
				l-3.5-5.3C24.5,28.4,24.5,28.4,24.4,28.4 M28,35.8h-7.2c-0.7,0-1.4-0.4-1.8-1.1c-0.4-0.7-0.3-1.5,0.1-2.1l3.5-5.3
				c0.4-0.6,1-0.9,1.7-0.9s1.4,0.3,1.7,0.9l3.5,5.3c0.4,0.6,0.4,1.4,0.1,2C29.4,35.4,28.8,35.8,28,35.8"/>
			<path d="M32,47c-0.4,0-0.8-0.3-0.9-0.7c-0.1-0.4-0.2-0.8-0.2-1.2c0-2.4,1.8-4.4,4.1-4.6c0.7-1.7,2.4-2.8,4.3-2.8
				c1.6,0,3.1,0.8,3.9,2.2c0.5-0.2,1.1-0.3,1.7-0.3c1.4,0,4.7,0.6,4.7,6.5c0,0.5-0.4,0.9-0.9,0.9s-0.9-0.4-0.9-0.9
				c0-3.1-0.9-4.7-2.8-4.7c-0.6,0-1.1,0.2-1.6,0.5c-0.2,0.2-0.5,0.2-0.8,0.1c-0.3-0.1-0.5-0.3-0.6-0.6c-0.4-1.1-1.4-1.9-2.6-1.9
				c-1.3,0-2.4,0.9-2.7,2.1c-0.1,0.4-0.5,0.7-0.9,0.7c0,0-0.1,0-0.2,0c-1.5,0-2.7,1.3-2.7,2.8c0,0.2,0,0.4,0.1,0.7
				c0.1,0.5-0.2,1-0.7,1.1C32.1,47,32.1,47,32,47"/>
			<path d="M4.7,58.2c-0.8,0-1.6-0.4-2.1-1c-0.6-0.8-0.8-1.9-0.4-2.8l2.6-6.5c-2.4-12.4-2.4-24.3,0-35.3L2.2,6.1
				C1.8,5.1,2,4,2.7,3.2c0.7-0.8,1.7-1.1,2.7-0.8c0,0,0.1,0,0.1,0l4.8,1.9c2.1,0.5,4.2,0.8,6.4,0.8h15.3c2.1,0,4.3-0.3,6.4-0.8
				l4.8-1.9c0,0,0.1,0,0.1,0c1-0.3,2,0.1,2.7,0.8C46.8,4,47,5.1,46.6,6.1L44,12.6c2,8.6,2.3,18,1.1,28.1c-0.1,0.5-0.5,0.9-1,0.8
				c-0.5-0.1-0.9-0.5-0.8-1c1.2-9.9,0.8-19.3-1.1-27.7c0-0.2,0-0.4,0-0.6l2.7-6.8c0.1-0.3,0.1-0.7-0.2-1c-0.1-0.1-0.4-0.4-0.8-0.3
				L39.1,6c0,0-0.1,0-0.1,0c-2.2,0.6-4.6,0.9-6.9,0.9H16.7c-2.3,0-4.6-0.3-6.9-0.9c0,0-0.1,0-0.1,0L4.9,4.1C4.5,4,4.2,4.3,4.1,4.4
				c-0.2,0.3-0.3,0.6-0.2,1l2.7,6.8c0.1,0.2,0.1,0.4,0,0.5c-2.4,10.9-2.4,22.7,0,35.1c0,0.2,0,0.4,0,0.5l-2.7,6.7
				c-0.1,0.3-0.1,0.7,0.1,1c0.1,0.1,0.4,0.4,0.8,0.3l6-0.9c0.4-0.1,0.8-0.1,1.1-0.2c0.4-0.1,0.9-0.1,1.3-0.2c2-0.4,3.6-0.5,5.1-0.5
				h5c0.5,0,0.9,0.4,0.9,0.9c0,0.5-0.4,0.9-0.9,0.9h-5c-1.4,0-2.9,0.2-4.8,0.5c-0.4,0.1-0.9,0.1-1.3,0.2c-0.4,0.1-0.7,0.1-1.1,0.2
				l-6,0.9C5.1,58.2,4.9,58.2,4.7,58.2"/>
		</g>
	</g>
</g>
</svg>
