<?xml version="1.0" encoding="utf-8"?>
<!-- Generator: Adobe Illustrator 22.0.0, SVG Export Plug-In . SVG Version: 6.00 Build 0)  -->
<svg version="1.1" id="Layer_1" xmlns="http://www.w3.org/2000/svg" xmlns:xlink="http://www.w3.org/1999/xlink" x="0px" y="0px"
	 viewBox="0 0 24 24" style="enable-background:new 0 0 24 24;" xml:space="preserve">
<title>rounded_02_</title>
<path d="M19.5,3.2h-15C2.4,3.2,0.8,4.9,0.8,7v10c0,2.1,1.7,3.8,3.8,3.8h15c2.1,0,3.8-1.7,3.8-3.8V7C23.3,4.9,21.6,3.2,19.5,3.2z
	 M2,17V7c0-1.4,1.1-2.5,2.5-2.5v15C3.1,19.5,2,18.3,2,17z M5.8,19.5v-15h12.5v15H5.8z M22,17c0,1.4-1.1,2.5-2.5,2.5v-15
	C20.9,4.5,22,5.6,22,7V17z"/>
<path d="M14.5,10.7h-1.3V9.5c0-0.7-0.6-1.3-1.3-1.3s-1.3,0.6-1.3,1.3v1.3H9.5c-0.7,0-1.3,0.6-1.3,1.3s0.6,1.3,1.3,1.3h1.3v1.3
	c0,0.7,0.6,1.3,1.3,1.3s1.3-0.6,1.3-1.3v-1.3h1.3c0.7,0,1.3-0.6,1.3-1.3S15.2,10.7,14.5,10.7z"/>
</svg>
