<?xml version="1.0" encoding="utf-8"?>
<!-- Generator: Adobe Illustrator 22.0.0, SVG Export Plug-In . SVG Version: 6.00 Build 0)  -->
<svg version="1.1" id="Layer_1" xmlns="http://www.w3.org/2000/svg" xmlns:xlink="http://www.w3.org/1999/xlink" x="0px" y="0px"
	 viewBox="0 0 64 62.5" style="enable-background:new 0 0 64 62.5;" xml:space="preserve">
<path d="M2,18v15c0,0,0,0,0,0c0,0,0,0,0,0l2,27C4,60.6,4.5,61,5,61h4c0.5,0,0.9-0.4,1-0.9l1.3-9l2.7,9.2c0.1,0.4,0.5,0.7,1,0.7h4
	c0.3,0,0.5-0.1,0.7-0.3c0.2-0.2,0.3-0.5,0.3-0.8l-2-27v-3.1c0.5,0.1,0.8,0.2,1,0.2h10c0.4,0,0.8-0.3,0.9-0.7l2-6
	c0.2-0.5-0.1-1-0.6-1.2c-0.5-0.2-1,0-1.3,0.5l-1.7,3.3l-8.9-1.8L18,22.5V18c0-2-1.7-3.7-3.7-4.5C16,12.2,17,10.2,17,8
	c0-3.9-3.1-7-7-7S3,4.1,3,8c0,2.2,1,4.2,2.7,5.5C3.7,14.3,2,16,2,18z M8.1,59H5.9L4.1,34h7.8L8.1,59z M15.7,59L12,46.4L13.9,34h2.2
	l1.9,25H15.7z M5,8c0-2.8,2.2-5,5-5s5,2.2,5,5s-2.2,5-5,5S5,10.8,5,8z M4,18c0-1.5,2.3-3,4-3h4c1.7,0,4,1.5,4,3v2.5l-3.7-3.7
	l-1.4,1.4l5.4,5.4l2,2c0.1,0.1,0.3,0.2,0.5,0.3l9.5,1.9l0,0.1L19,28c-0.3,0-1.1-0.2-1.5-0.4c0,0,0,0-0.1,0c-0.1,0-0.1-0.1-0.1-0.1
	l-7.8-7.8l-1.4,1.4l7.8,7.8c0,0,0,0,0,0c0,0,0.1,0.1,0.1,0.1v3h-3H4V18z"/>
<path d="M60.5,35.4L60,35c-0.8-0.6-1.9-0.9-2.9-0.7c-1,0.2-1.9,0.8-2.4,1.7c-0.5,0.9-0.7,1.9-0.4,2.9s1,1.8,1.9,2.3l1.4,0.7l0.9-1.8
	L57,39.4c-0.4-0.2-0.7-0.6-0.9-1s-0.1-0.9,0.2-1.3c0.2-0.4,0.6-0.7,1.1-0.8c0.5-0.1,0.9,0,1.3,0.3l0.6,0.4c0.4,0.3,0.7,0.8,0.7,1.3
	V53c-0.4-1.1-0.9-2.2-1.5-3.3c-3.5-6.7-8.5-11-14.6-12.5L42,25.8c-0.1-0.4-0.4-0.8-0.9-0.8c-0.4,0-0.9,0.2-1,0.6L38.3,30H36
	c-1.4,0-2.5,0.6-2.9,1.7l-0.9,2.8c-0.3,0.3-1.6,1.1-2.5,1.6c-0.1,0.1-0.2,0.1-0.3,0.1C28.6,36.4,28,36.8,28,38c0,0.7,0,2.5,1.7,2.9
	l3.1,1c0.4,0.1,1.2,0.4,1.4,0.6l2.7,6.4L35.2,55H34c-1.7,0-3,1.3-3,3s1.3,3,3,3h4c0.4,0,0.8-0.2,0.9-0.6l3.5-7.8l3.7,3.1
	C45.4,56.3,45,57.1,45,58c0,1.6,1.4,3,3.1,3H61c0.3,0,0.6-0.1,0.8-0.4c0.2-0.2,0.2-0.4,0.2-0.6h0V38.3C62,37.2,61.5,36.1,60.5,35.4z
	 M48.1,59c-0.6,0-1.1-0.5-1.1-1s0.5-1,1.1-1H49c0.6,0,1-0.4,1-1v-5c0-0.5,0.1-0.7,0.1-0.8C50.3,50,51.2,50,52,50v-2
	c-1.4,0-2.5,0-3.3,0.8C48.2,49.3,48,50,48,51v3.7l-5.4-4.5C42.4,50,42.1,50,41.8,50c-0.3,0.1-0.6,0.3-0.7,0.6L37.3,59H34
	c-0.6,0-1-0.4-1-1s0.4-1,1-1h2c0.5,0,0.8-0.3,1-0.7l3-11L38,44.7l-0.3,1.1l-1.8-4.2c0-0.1-0.1-0.1-0.1-0.2c-0.6-0.8-2.5-1.3-2.5-1.3
	l-3.1-1c-0.1,0-0.2-0.1-0.2-1c0.1,0,0.3-0.1,0.5-0.2c3.1-1.7,3.3-2.2,3.5-2.6l1-2.9C35,32.1,35.6,32,36,32h3c0.4,0,0.8-0.2,0.9-0.6
	l0.7-1.7l1.4,8.5c0.1,0.4,0.4,0.7,0.8,0.8c12,2.4,16,15.9,17,20H48.1z"/>
</svg>
